<?xml version="1.0" standalone="no"?>
<!DOCTYPE svg PUBLIC "-//W3C//DTD SVG 20010904//EN"
 "http://www.w3.org/TR/2001/REC-SVG-20010904/DTD/svg10.dtd">
<svg version="1.0" xmlns="http://www.w3.org/2000/svg"
 width="520.000000pt" height="520.000000pt" viewBox="0 0 520.000000 520.000000"
 preserveAspectRatio="xMidYMid meet">
<metadata>
Created by potrace 1.11, written by Peter Selinger 2001-2013
</metadata>
<g transform="translate(0.000000,520.000000) scale(0.100000,-0.100000)"
fill="#000000" stroke="none">
<path d="M0 2600 l0 -2600 2600 0 2600 0 0 2600 0 2600 -2600 0 -2600 0 0
-2600z m1771 1135 c469 -374 856 -681 861 -683 4 -2 8 276 8 617 l0 621 830 0
830 0 -2 -1757 -3 -1758 -610 -2 -610 -2 -129 137 c-71 75 -175 184 -230 241
l-101 103 -235 -241 -235 -242 -620 3 -620 3 -3 1823 c-1 1192 1 1823 8 1820
5 -1 393 -309 861 -683z"/>
</g>
</svg>
